<?xml version="1.0" encoding="UTF-8" standalone="no"?>
<!-- Created with Inkscape (http://www.inkscape.org/) -->

<svg
   xmlns:dc="http://purl.org/dc/elements/1.1/"
   xmlns:cc="http://creativecommons.org/ns#"
   xmlns:rdf="http://www.w3.org/1999/02/22-rdf-syntax-ns#"
   xmlns:svg="http://www.w3.org/2000/svg"
   xmlns="http://www.w3.org/2000/svg"
   xmlns:inkscape="http://www.inkscape.org/namespaces/inkscape"
   version="1.1"
   width="1750"
   height="1750"
   id="svg2"
   xml:space="preserve"><metadata
     id="metadata8"><rdf:RDF><cc:Work
         rdf:about=""><dc:format>image/svg+xml</dc:format><dc:type
           rdf:resource="http://purl.org/dc/dcmitype/StillImage" /></cc:Work></rdf:RDF></metadata><defs
     id="defs6"><clipPath
       id="clipPath18"><path
         d="m -1.834992,1402 0,-702.9893 702.499992,0 0,702.9893 -702.499992,0 z"
         inkscape:connector-curvature="0"
         id="path20" /></clipPath><clipPath
       id="clipPath28"><path
         d="m -1.834992,1402 0,-702.9893 702.499992,0 0,702.9893 -702.499992,0 z"
         inkscape:connector-curvature="0"
         id="path30" /></clipPath><clipPath
       id="clipPath38"><path
         d="m 699.5,1402 0,-702.9893 702.5,0 0,702.9893 -702.5,0 z"
         inkscape:connector-curvature="0"
         id="path40" /></clipPath><clipPath
       id="clipPath54"><path
         d="m 1339.09,1039.43 0,-54.7935 62.91,0 0,54.7935 -62.91,0 z"
         inkscape:connector-curvature="0"
         id="path56" /></clipPath><clipPath
       id="clipPath64"><path
         d="m 842.2612,1271.946 516.0038,0 0,-516.3279 -516.0038,0 0,516.3279 z M 1100.263,780.6181 c 128.683,0 233.002,104.391 233.002,233.1639 0,128.773 -104.319,233.164 -233.002,233.164 -128.6834,0 -233.0018,-104.391 -233.0018,-233.164 0,-128.7729 104.3184,-233.1639 233.0018,-233.1639 z"
         inkscape:connector-curvature="0"
         id="path66" /></clipPath><clipPath
       id="clipPath76"><path
         d="m 699.5,699.0107 0,-702.989348 702.5,0 0,702.989348 -702.5,0 z"
         inkscape:connector-curvature="0"
         id="path78" /></clipPath><clipPath
       id="clipPath116"><path
         d="m 1225.214,1133.474 c -1.366,1.366 -3.592,1.388 -4.989,0.034 l -134.632,-130.566 c -0.991,-0.961 -1.004,-2.531 -0.021,-3.514 l 5.54,-5.5398 c 0.98,-0.9795 2.549,-0.9757 3.516,0.0197 l 130.676,134.5211 c 1.348,1.388 1.331,3.624 -0.032,4.986 l -0.058,0.059 z"
         inkscape:connector-curvature="0"
         id="path118" /></clipPath><clipPath
       id="clipPath126"><path
         d="m 1045.665,1060.65 c -1.73,-1.791 -1.706,-4.658 0.067,-6.415 l 60.441,-59.9113 c 0.981,-0.9718 2.553,-0.9539 3.51,0.0372 l 5.474,5.6681 c 0.958,0.992 0.91,2.547 -0.116,3.478 l -63.017,57.245 c -1.842,1.673 -4.732,1.583 -6.468,-0.214 l 0.109,0.112 z"
         inkscape:connector-curvature="0"
         id="path128" /></clipPath><clipPath
       id="clipPath136"><path
         d="m 1099.923,1026.606 c -1.106,0 -1.997,-0.888 -1.99,-2.009 l 0.965,-145.0456 c 0,-0.5548 0.46,-1.0045 1.005,-1.0045 l 0.358,0 c 0.551,0 1.003,0.4514 1.008,1.0045 l 1.323,145.0456 c 0.01,1.11 -0.886,2.009 -1.984,2.009 l -0.685,0 z"
         inkscape:connector-curvature="0"
         id="path138" /></clipPath><clipPath
       id="clipPath146"><path
         d="m 1100.263,1000.958 c 3.86,0 6.99,3.132 6.99,6.995 0,3.863 -3.13,6.995 -6.99,6.995 -3.861,0 -6.99,-3.132 -6.99,-6.995 0,-3.863 3.129,-6.995 6.99,-6.995 z"
         inkscape:connector-curvature="0"
         id="path148" /></clipPath><clipPath
       id="clipPath156"><path
         d="m -3,699.0107 0,-702.989348 702.5,0 0,702.989348 -702.5,0 z"
         inkscape:connector-curvature="0"
         id="path158" /></clipPath><clipPath
       id="clipPath162"><path
         d="M 0,0 700,0 700,700 0,700 0,0 z"
         inkscape:connector-curvature="0"
         id="path164" /></clipPath><clipPath
       id="clipPath166"><path
         d="M 0,0 700,0 700,700 0,700 0,0 z"
         inkscape:connector-curvature="0"
         id="path168" /></clipPath><clipPath
       id="clipPath170"><path
         d="m -196.9858,388.2481 19.839,-74.0402 684.3953,183.3831 -19.8391,74.0402 -684.3952,-183.3831 z"
         inkscape:connector-curvature="0"
         id="path172" /></clipPath><clipPath
       id="clipPath174"><path
         d="M 0,0 700,0 700,700 0,700 0,0 z"
         inkscape:connector-curvature="0"
         id="path176" /></clipPath><clipPath
       id="clipPath178"><path
         d="m 449.5298,584.9614 187.4038,50.2147 31.7773,-118.5946 -187.4038,-50.2147 -31.7773,118.5946 z m 59.6752,-84.9221 -11.9995,8.9507 0.7808,-3.9448 6.6311,11.0843 1.4289,2.3886 -2.2749,1.6036 -11.837,8.3441 1.0516,-3.5795 5.1211,12.6273 0.9116,2.2478 -2.0071,1.362 -10.3947,7.0541 1.0207,-3.779 6.1585,12.848 0.9088,1.896 -1.4721,1.5012 -10.6723,10.8834 -1.3656,-4.9982 6.2135,1.6649 -0.8466,-0.1014 136.5552,-3.1942 -1.4863,5.5639 -115.7759,-70.2628 3.3502,-0.16 z m -3.5875,-4.8094 1.6212,-1.2092 1.729,1.0493 115.7759,70.2627 8.7724,5.3239 -10.2587,0.24 -136.5552,3.1941 -0.4306,0.0101 -0.416,-0.1115 -6.2135,-1.6649 -4.9628,-1.3297 3.5973,-3.6685 10.6724,-10.8834 -0.5633,3.3971 -6.1585,-12.848 -1.1163,-2.3289 2.1369,-1.4502 10.3947,-7.0541 -1.0954,3.6098 -5.1211,-12.6273 -0.8951,-2.2072 1.9467,-1.3723 11.8369,-8.344 -0.846,3.9921 -6.6311,-11.0843 -1.3909,-2.325 2.1717,-1.6199 11.9994,-8.9507 z"
         inkscape:connector-curvature="0"
         id="path180" /></clipPath><clipPath
       id="clipPath182"><path
         d="m 507.4113,497.6346 -11.9995,8.9507 6.6311,11.0844 -11.8369,8.3441 5.121,12.6273 -10.3947,7.0541 6.1586,12.848 -10.6724,10.8835 6.2134,1.6649 136.5552,-3.1942 -115.7758,-70.2628 z"
         inkscape:connector-curvature="0"
         id="path184" /></clipPath><clipPath
       id="clipPath186"><path
         d="M 0,0 700,0 700,700 0,700 0,0 z"
         inkscape:connector-curvature="0"
         id="path188" /></clipPath><clipPath
       id="clipPath190"><path
         d="m 507.4113,497.6346 -11.9995,8.9507 6.6311,11.0844 -11.8369,8.3441 5.121,12.6273 -10.3947,7.0541 6.1586,12.848 -10.6724,10.8835 6.2134,1.6649 136.5552,-3.1942 -115.7758,-70.2628 z"
         inkscape:connector-curvature="0"
         id="path192" /></clipPath><clipPath
       id="clipPath194"><path
         d="M 0,0 700,0 700,700 0,700 0,0 z"
         inkscape:connector-curvature="0"
         id="path196" /></clipPath><clipPath
       id="clipPath198"><path
         d="m 591.1604,548.9013 -5.3233,19.8671 36.7354,-0.8035 -31.4121,-19.0636 z"
         inkscape:connector-curvature="0"
         id="path200" /></clipPath><clipPath
       id="clipPath202"><path
         d="M 0,0 700,0 700,700 0,700 0,0 z"
         inkscape:connector-curvature="0"
         id="path204" /></clipPath><clipPath
       id="clipPath206"><path
         d="m 350.8952,446.9715 c 0,0 -143.9656,64.1537 -185.8433,-45.214 -41.8776,-109.3678 28.9796,-173.4623 61.9535,-199.283 32.9739,-25.8206 37.2357,-57.0615 37.2357,-57.0615 0,0 23.9833,-56.31567 67.8685,-14.4259 43.8851,41.8899 13.3484,62.7993 13.3484,62.7993"
         inkscape:connector-curvature="0"
         id="path208" /></clipPath><clipPath
       id="clipPath210"><path
         d="M 0,0 700,0 700,700 0,700 0,0 z"
         inkscape:connector-curvature="0"
         id="path212" /></clipPath><clipPath
       id="clipPath214"><path
         d="M 0,0 700,0 700,700 0,700 0,0 z"
         inkscape:connector-curvature="0"
         id="path216" /></clipPath><clipPath
       id="clipPath218"><path
         d="m 388.8647,702.6854 c 0,0 53.2141,-130.8627 22.291,-254.6415 -30.9232,-123.7787 11.986,-152.253 11.986,-152.253 0,0 -34.277,-4.3151 -34.277,155.3654 0,159.6804 -46.4334,237.5623 -46.4334,237.5623 l -12.8711,21.5101 c 0,0 82.7892,-119.61 12.8711,-217.9699 -69.9182,-98.3599 -112.9897,38.2176 -112.9897,38.2176 l 38.8407,163.8411 46.742,45.2631 73.8404,-36.8952 z"
         inkscape:connector-curvature="0"
         id="path220" /></clipPath><clipPath
       id="clipPath222"><path
         d="M 0,0 700,0 700,700 0,700 0,0 z"
         inkscape:connector-curvature="0"
         id="path224" /></clipPath><clipPath
       id="clipPath226"><path
         d="M 0,0 700,0 700,700 0,700 0,0 z"
         inkscape:connector-curvature="0"
         id="path228" /></clipPath><clipPath
       id="clipPath230"><path
         d="m 330.1884,757.1031 c 0,0 -138.6552,-172.1465 -87.9027,-579.9618 C 293.0381,-230.674 197.5295,-15.02351 197.5295,-15.02351 L 19.82629,236.087 c 0,0 -94.08623,329.9135 54.80147,478.8013 148.88774,148.8877 255.56064,42.2148 255.56064,42.2148 z"
         inkscape:connector-curvature="0"
         id="path232" /></clipPath><clipPath
       id="clipPath234"><path
         d="M 0,0 700,0 700,700 0,700 0,0 z"
         inkscape:connector-curvature="0"
         id="path236" /></clipPath><clipPath
       id="clipPath238"><path
         d="m 320.6745,849.328 c 0,0 -123.3335,-182.4766 -115.2222,-509.1524 8.1115,-326.67569 2.6247,-374.51622 2.6247,-374.51622 L 59.11202,178.716 c 0,0 -73.72893,398.2727 55.87778,564.1617 129.6066,165.889 205.6847,106.4503 205.6847,106.4503 z"
         inkscape:connector-curvature="0"
         id="path240" /></clipPath><clipPath
       id="clipPath242"><path
         d="M 0,0 700,0 700,700 0,700 0,0 z"
         inkscape:connector-curvature="0"
         id="path244" /></clipPath><clipPath
       id="clipPath246"><path
         d="m 58.41827,440.8689 c 0,0 45.96573,-281.401 13.78891,-358.98281 l 13.8095,-16.04002 c 0,0 20.26942,58.13963 10.37192,196.40723 C 86.49109,400.5208 70.11668,480.2245 77.61781,545.6457 89.43511,648.7107 58.41827,440.8689 58.41827,440.8689 z"
         inkscape:connector-curvature="0"
         id="path248" /></clipPath><clipPath
       id="clipPath250"><path
         d="M 0,0 700,0 700,700 0,700 0,0 z"
         inkscape:connector-curvature="0"
         id="path252" /></clipPath></defs><g
     transform="matrix(1.25,0,0,-1.25,0,1750)"
     id="g10"><g
       id="g12" /><g
       id="g14"><g
         clip-path="url(#clipPath18)"
         id="g16"><path
           d="m -6.834992,1407 712.499992,0 0,-712.9893 -712.499992,0 0,712.9893 z"
           inkscape:connector-curvature="0"
           id="path22"
           style="fill:#4a4a4a;fill-opacity:1;fill-rule:evenodd;stroke:none" /></g></g><g
       id="g24"><g
         clip-path="url(#clipPath28)"
         id="g26"><path
           d="m -6.834992,1407 712.499992,0 0,-712.9893 -712.499992,0 0,712.9893 z"
           inkscape:connector-curvature="0"
           id="path32"
           style="fill:#4a4a4a;fill-opacity:1;fill-rule:evenodd;stroke:none" /></g></g><g
       id="g34"><g
         clip-path="url(#clipPath38)"
         id="g36"><path
           d="m 694.5,1407 712.5,0 0,-712.9893 -712.5,0 0,712.9893 z"
           inkscape:connector-curvature="0"
           id="path42"
           style="fill:#099dff;fill-opacity:1;fill-rule:evenodd;stroke:none" /></g></g><g
       id="g44"><g
         transform="matrix(1,0,0,-1,595.8143,1105.882)"
         id="g46"><path
           d="m 0.2110251,14.95693 c 0,0 158.8487749,-34.12367 278.5018749,0"
           inkscape:connector-curvature="0"
           id="path48"
           style="fill:none;stroke:#4a4a4a;stroke-width:15;stroke-linecap:butt;stroke-linejoin:miter;stroke-miterlimit:10;stroke-opacity:1;stroke-dasharray:none" /></g></g><g
       id="g50"><g
         clip-path="url(#clipPath54)"
         id="g52"><path
           d="m 1334.09,1044.43 72.91,0 0,-64.7935 -72.91,0 0,64.7935 z"
           inkscape:connector-curvature="0"
           id="path58"
           style="fill:#4a4a4a;fill-opacity:1;fill-rule:evenodd;stroke:none" /></g></g><g
       id="g60"><g
         clip-path="url(#clipPath64)"
         id="g62"><g
           transform="matrix(1,0,0,-1,867.2612,1246.946)"
           id="g68"><path
             d="m 233.0017,466.3279 c 128.6832,0 233.0016,-104.391 233.0016,-233.1639 C 466.0033,104.3911 361.6849,0 233.0017,0 104.3184,0 0,104.3911 0,233.164 0,361.9369 104.3184,466.3279 233.0017,466.3279 z"
             inkscape:connector-curvature="0"
             id="path70"
             style="fill:none;stroke:#4a4a4a;stroke-width:30;stroke-linecap:butt;stroke-linejoin:miter;stroke-miterlimit:10;stroke-opacity:1;stroke-dasharray:none" /></g></g></g><g
       id="g72"><g
         clip-path="url(#clipPath76)"
         id="g74"><path
           d="m 694.5,704.0107 712.5,0 0,-712.989348 -712.5,0 0,712.989348 z"
           inkscape:connector-curvature="0"
           id="path80"
           style="fill:#4a4a4a;fill-opacity:1;fill-rule:evenodd;stroke:none" /></g></g><g
       id="g82"><g
         transform="matrix(1,0,0,-1,946.4818,1167.67)"
         id="g84"><path
           d="m 153.7811,307.7764 c 84.931,0 153.7811,-68.8981 153.7811,-153.8882 C 307.5622,68.89809 238.7121,0 153.7811,0 68.85014,0 0,68.89809 0,153.8882 0,238.8783 68.85014,307.7764 153.7811,307.7764 z"
           inkscape:connector-curvature="0"
           id="path86"
           style="fill:none;stroke:#ffffff;stroke-width:2;stroke-linecap:butt;stroke-linejoin:miter;stroke-miterlimit:10;stroke-opacity:1;stroke-dasharray:none" /></g><g
         transform="matrix(1,0,0,-1,1069.973,1243.449)"
         id="g88"><text
           transform="translate(0.606216,55)"
           id="text90"><tspan
             x="0 30.85128"
             y="0"
             id="tspan92"
             style="font-size:55.20000076px;font-variant:normal;font-weight:200;writing-mode:lr-tb;fill:#ffffff;fill-opacity:1;fill-rule:nonzero;stroke:none;font-family:AvenirNext;-inkscape-font-specification:AvenirNext-UltraLight">12</tspan></text>
</g><g
         transform="matrix(1,0,0,-1,1084.535,854.0647)"
         id="g94"><text
           transform="translate(0.303108,55)"
           id="text96"><tspan
             x="0"
             y="0"
             id="tspan98"
             style="font-size:55.20000076px;font-variant:normal;font-weight:200;writing-mode:lr-tb;fill:#ffffff;fill-opacity:1;fill-rule:nonzero;stroke:none;font-family:AvenirNext;-inkscape-font-specification:AvenirNext-UltraLight">6</tspan></text>
</g><g
         transform="matrix(1,0,0,-1,1283.752,1048.757)"
         id="g100"><text
           transform="translate(0.303108,55)"
           id="text102"><tspan
             x="0"
             y="0"
             id="tspan104"
             style="font-size:55.20000076px;font-variant:normal;font-weight:200;writing-mode:lr-tb;fill:#ffffff;fill-opacity:1;fill-rule:nonzero;stroke:none;font-family:AvenirNext;-inkscape-font-specification:AvenirNext-UltraLight">3</tspan></text>
</g><g
         transform="matrix(1,0,0,-1,886.4838,1048.757)"
         id="g106"><text
           transform="translate(0.303108,55)"
           id="text108"><tspan
             x="0"
             y="0"
             id="tspan110"
             style="font-size:55.20000076px;font-variant:normal;font-weight:200;writing-mode:lr-tb;fill:#ffffff;fill-opacity:1;fill-rule:nonzero;stroke:none;font-family:AvenirNext;-inkscape-font-specification:AvenirNext-UltraLight">9</tspan></text>
</g></g><g
       id="g112"><g
         clip-path="url(#clipPath116)"
         id="g114"><path
           d="m 1220.669,1145.089 16.106,-16.105 -143.915,-143.9151 -16.106,16.1061 143.915,143.914 z"
           inkscape:connector-curvature="0"
           id="path120"
           style="fill:#4a4a4a;fill-opacity:1;fill-rule:evenodd;stroke:none" /></g></g><g
       id="g122"><g
         clip-path="url(#clipPath126)"
         id="g124"><path
           d="m 1034.65,1056.442 15.816,16.378 73.444,-70.925 -15.816,-16.3776 -73.444,70.9246 z"
           inkscape:connector-curvature="0"
           id="path130"
           style="fill:#4a4a4a;fill-opacity:1;fill-rule:evenodd;stroke:none" /></g></g><g
       id="g132"><g
         clip-path="url(#clipPath136)"
         id="g134"><path
           d="m 1092.933,1031.606 14.659,0 0,-158.0591 -14.659,0 0,158.0591 z"
           inkscape:connector-curvature="0"
           id="path140"
           style="fill:#f03d50;fill-opacity:1;fill-rule:evenodd;stroke:none" /></g></g><g
       id="g142"><g
         clip-path="url(#clipPath146)"
         id="g144"><path
           d="m 1088.273,1019.948 23.98,0 0,-23.99 -23.98,0 0,23.99 z"
           inkscape:connector-curvature="0"
           id="path150"
           style="fill:#d8d8d8;fill-opacity:1;fill-rule:evenodd;stroke:none" /></g></g><g
       id="g152"><g
         clip-path="url(#clipPath156)"
         id="g154"><g
           id="g160" /><g
           id="g254"><g
             clip-path="url(#clipPath162)"
             id="g256"><g
               id="g258" /><g
               id="g260"><g
                 clip-path="url(#clipPath166)"
                 id="g262"><path
                   d="m -8,704.0107 712.5,0 0,-712.989348 -712.5,0 0,712.989348 z"
                   inkscape:connector-curvature="0"
                   id="path264"
                   style="fill:#ff675e;fill-opacity:1;fill-rule:evenodd;stroke:none" /></g></g><g
               id="g266"><g
                 clip-path="url(#clipPath170)"
                 id="g268"><g
                   clip-path="url(#clipPath174)"
                   id="g270"><path
                     d="m -203.1095,391.7836 694.0545,185.9713 22.4272,-83.6994 -694.0545,-185.9714 -22.4272,83.6995 z"
                     inkscape:connector-curvature="0"
                     id="path272"
                     style="fill:#4a4a4a;fill-opacity:1;fill-rule:evenodd;stroke:none" /></g></g></g><g
               id="g274"><g
                 clip-path="url(#clipPath178)"
                 id="g276"><g
                   clip-path="url(#clipPath182)"
                   id="g278"><g
                     clip-path="url(#clipPath186)"
                     id="g280"><path
                       d="m 507.4113,497.6346 -11.9995,8.9507 6.6311,11.0844 -11.8369,8.3441 5.121,12.6273 -10.3947,7.0541 6.1586,12.848 -10.6724,10.8835 6.2134,1.6649 136.5552,-3.1942 -115.7758,-70.2628 z"
                       inkscape:connector-curvature="0"
                       id="path282"
                       style="fill:#ff675e;fill-opacity:1;fill-rule:evenodd;stroke:none" /></g></g></g></g><g
               id="g284"><g
                 clip-path="url(#clipPath190)"
                 id="g286"><g
                   clip-path="url(#clipPath194)"
                   id="g288"><g
                     transform="matrix(0.9659258,0.258819,0.258819,-0.9659258,478.768,569.4853)"
                     id="g290"><path
                       d="M 9.0709,76.81584 -0.2030823,65.06442 9.0709,56.07403 -0.2030823,44.95065 8.011668,34.07903 -0.2030823,24.57494 9.0709,13.75863 1.579004,0.4838068 l 6.432664,0 L 139.0871,38.91221 9.0709,76.81584 z"
                       inkscape:connector-curvature="0"
                       id="path292"
                       style="fill:none;stroke:#4a4a4a;stroke-width:12;stroke-linecap:butt;stroke-linejoin:miter;stroke-miterlimit:10;stroke-opacity:1;stroke-dasharray:none" /></g></g></g></g><g
               id="g294"><g
                 clip-path="url(#clipPath198)"
                 id="g296"><g
                   clip-path="url(#clipPath202)"
                   id="g298"><path
                     d="m 579.7133,572.3039 43.733,11.7182 7.9116,-29.5263 -43.733,-11.7182 -7.9116,29.5263 z"
                     inkscape:connector-curvature="0"
                     id="path300"
                     style="fill:#4a4a4a;fill-opacity:1;fill-rule:evenodd;stroke:none" /></g></g></g><g
               id="g302"><g
                 clip-path="url(#clipPath206)"
                 id="g304"><g
                   clip-path="url(#clipPath210)"
                   id="g306"><path
                     d="M 176.7908,493.4871 418.8824,442.029 346.2065,100.1155 104.1149,151.5737 176.7908,493.4871 z"
                     inkscape:connector-curvature="0"
                     id="path308"
                     style="fill:#ff675e;fill-opacity:1;fill-rule:evenodd;stroke:none" /></g></g></g><g
               id="g310"><g
                 clip-path="url(#clipPath214)"
                 id="g312"><g
                   transform="matrix(0.9781476,-0.2079117,-0.2079117,-0.9781476,180.6114,487.9994)"
                   id="g314"><path
                     d="m 175.093,4.727346 c 0,0 -154.15804,-32.819706 -172.381714,82.864934 C -15.51239,203.2769 67.12241,251.2388 104.7442,269.6396 c 37.6217,18.4007 48.2857,48.0728 48.2857,48.0728 0,0 35.168,50.0987 69.3847,0 34.2168,-50.0986 0,-64.2022 0,-64.2022"
                     inkscape:connector-curvature="0"
                     id="path316"
                     style="fill:none;stroke:#4a4a4a;stroke-width:15;stroke-linecap:butt;stroke-linejoin:miter;stroke-miterlimit:10;stroke-opacity:1;stroke-dasharray:none" /></g><g
                   transform="matrix(1,0,0,-1,395.3721,114.2729)"
                   id="g318"><path
                     d="m 28.76231,0.1122992 c 0,0 -50.22931,63.8371208 -18.65706,127.0202008"
                     inkscape:connector-curvature="0"
                     id="path320"
                     style="fill:none;stroke:#4a4a4a;stroke-width:8;stroke-linecap:butt;stroke-linejoin:miter;stroke-miterlimit:10;stroke-opacity:1;stroke-dasharray:none" /></g><g
                   transform="matrix(1,0,0,-1,369.469,124.3069)"
                   id="g322"><path
                     d="m 28.76231,0.1122992 c 0,0 -50.22931,63.8371208 -18.65706,127.0202008"
                     inkscape:connector-curvature="0"
                     id="path324"
                     style="fill:none;stroke:#4a4a4a;stroke-width:8;stroke-linecap:butt;stroke-linejoin:miter;stroke-miterlimit:10;stroke-opacity:1;stroke-dasharray:none" /></g><g
                   transform="matrix(1,0,0,-1,363.6199,154.4088)"
                   id="g326"><path
                     d="m 28.76231,0.1122992 c 0,0 -50.22931,63.8371208 -18.65706,127.0202008"
                     inkscape:connector-curvature="0"
                     id="path328"
                     style="fill:none;stroke:#4a4a4a;stroke-width:8;stroke-linecap:butt;stroke-linejoin:miter;stroke-miterlimit:10;stroke-opacity:1;stroke-dasharray:none" /></g><g
                   transform="matrix(1,0,0,-1,382.8383,128.4877)"
                   id="g330"><path
                     d="m 28.76231,0.1122992 c 0,0 -50.22931,63.8371208 -18.65706,127.0202008"
                     inkscape:connector-curvature="0"
                     id="path332"
                     style="fill:none;stroke:#4a4a4a;stroke-width:8;stroke-linecap:butt;stroke-linejoin:miter;stroke-miterlimit:10;stroke-opacity:1;stroke-dasharray:none" /></g><g
                   transform="matrix(1,0,0,-1,410.4125,109.2559)"
                   id="g334"><path
                     d="m 13.36932,0 c 0,0 -23.093294,44.12469 -8.57772,87.79729"
                     inkscape:connector-curvature="0"
                     id="path336"
                     style="fill:none;stroke:#4a4a4a;stroke-width:8;stroke-linecap:butt;stroke-linejoin:miter;stroke-miterlimit:10;stroke-opacity:1;stroke-dasharray:none" /></g><g
                   transform="matrix(1,0,0,-1,432.9733,105.0751)"
                   id="g338"><path
                     d="m 13.36932,0 c 0,0 -23.093294,44.12469 -8.57772,87.79729"
                     inkscape:connector-curvature="0"
                     id="path340"
                     style="fill:none;stroke:#4a4a4a;stroke-width:8;stroke-linecap:butt;stroke-linejoin:miter;stroke-miterlimit:10;stroke-opacity:1;stroke-dasharray:none" /></g><g
                   transform="matrix(1,0,0,-1,349.415,177.8214)"
                   id="g342"><path
                     d="m 28.76231,0.1122992 c 0,0 -50.22931,63.8371208 -18.65706,127.0202008"
                     inkscape:connector-curvature="0"
                     id="path344"
                     style="fill:none;stroke:#4a4a4a;stroke-width:8;stroke-linecap:butt;stroke-linejoin:miter;stroke-miterlimit:10;stroke-opacity:1;stroke-dasharray:none" /></g><g
                   transform="matrix(0.8829476,0.4694716,0.4694716,-0.8829476,465.1033,31.60378)"
                   id="g346"><path
                     d="m 28.76231,0.1122992 c 0,0 -50.22931,63.8371208 -18.65706,127.0202008"
                     inkscape:connector-curvature="0"
                     id="path348"
                     style="fill:none;stroke:#4a4a4a;stroke-width:8;stroke-linecap:butt;stroke-linejoin:miter;stroke-miterlimit:10;stroke-opacity:1;stroke-dasharray:none" /></g><g
                   transform="matrix(0.8829476,0.4694716,0.4694716,-0.8829476,437.5216,28.30251)"
                   id="g350"><path
                     d="m 28.76231,0.1122992 c 0,0 -50.22931,63.8371208 -18.65706,127.0202008"
                     inkscape:connector-curvature="0"
                     id="path352"
                     style="fill:none;stroke:#4a4a4a;stroke-width:8;stroke-linecap:butt;stroke-linejoin:miter;stroke-miterlimit:10;stroke-opacity:1;stroke-dasharray:none" /></g><g
                   transform="matrix(0.8829476,0.4694716,0.4694716,-0.8829476,418.2251,52.13495)"
                   id="g354"><path
                     d="m 28.76231,0.1122992 c 0,0 -50.22931,63.8371208 -18.65706,127.0202008"
                     inkscape:connector-curvature="0"
                     id="path356"
                     style="fill:none;stroke:#4a4a4a;stroke-width:8;stroke-linecap:butt;stroke-linejoin:miter;stroke-miterlimit:10;stroke-opacity:1;stroke-dasharray:none" /></g><g
                   transform="matrix(0.8829476,0.4694716,0.4694716,-0.8829476,447.3632,38.27047)"
                   id="g358"><path
                     d="m 28.76231,0.1122992 c 0,0 -50.22931,63.8371208 -18.65706,127.0202008"
                     inkscape:connector-curvature="0"
                     id="path360"
                     style="fill:none;stroke:#4a4a4a;stroke-width:8;stroke-linecap:butt;stroke-linejoin:miter;stroke-miterlimit:10;stroke-opacity:1;stroke-dasharray:none" /></g><g
                   transform="matrix(0.8829476,0.4694716,0.4694716,-0.8829476,480.7386,34.23512)"
                   id="g362"><path
                     d="m 13.36932,0 c 0,0 -23.093294,44.12469 -8.57772,87.79729"
                     inkscape:connector-curvature="0"
                     id="path364"
                     style="fill:none;stroke:#4a4a4a;stroke-width:8;stroke-linecap:butt;stroke-linejoin:miter;stroke-miterlimit:10;stroke-opacity:1;stroke-dasharray:none" /></g><g
                   transform="matrix(0.8829476,0.4694716,0.4694716,-0.8829476,502.6213,41.1353)"
                   id="g366"><path
                     d="m 13.36932,0 c 0,0 -23.093294,44.12469 -8.57772,87.79729"
                     inkscape:connector-curvature="0"
                     id="path368"
                     style="fill:none;stroke:#4a4a4a;stroke-width:8;stroke-linecap:butt;stroke-linejoin:miter;stroke-miterlimit:10;stroke-opacity:1;stroke-dasharray:none" /></g><g
                   transform="matrix(0.8829476,0.4694716,0.4694716,-0.8829476,394.6914,66.13826)"
                   id="g370"><path
                     d="m 28.76231,0.1122992 c 0,0 -50.22931,63.8371208 -18.65706,127.0202008"
                     inkscape:connector-curvature="0"
                     id="path372"
                     style="fill:none;stroke:#4a4a4a;stroke-width:8;stroke-linecap:butt;stroke-linejoin:miter;stroke-miterlimit:10;stroke-opacity:1;stroke-dasharray:none" /></g><g
                   transform="matrix(0.6819984,0.7313537,0.7313537,-0.6819984,570.8237,-9.737119)"
                   id="g374"><path
                     d="m 28.76231,0.1122992 c 0,0 -50.22931,63.8371208 -18.65706,127.0202008"
                     inkscape:connector-curvature="0"
                     id="path376"
                     style="fill:none;stroke:#4a4a4a;stroke-width:8;stroke-linecap:butt;stroke-linejoin:miter;stroke-miterlimit:10;stroke-opacity:1;stroke-dasharray:none" /></g><g
                   transform="matrix(0.6819984,0.7313537,0.7313537,-0.6819984,545.8195,-21.83826)"
                   id="g378"><path
                     d="m 28.76231,0.1122992 c 0,0 -50.22931,63.8371208 -18.65706,127.0202008"
                     inkscape:connector-curvature="0"
                     id="path380"
                     style="fill:none;stroke:#4a4a4a;stroke-width:8;stroke-linecap:butt;stroke-linejoin:miter;stroke-miterlimit:10;stroke-opacity:1;stroke-dasharray:none" /></g><g
                   transform="matrix(0.6819984,0.7313537,0.7313537,-0.6819984,519.8153,-5.586543)"
                   id="g382"><path
                     d="m 28.76231,0.1122992 c 0,0 -50.22931,63.8371208 -18.65706,127.0202008"
                     inkscape:connector-curvature="0"
                     id="path384"
                     style="fill:none;stroke:#4a4a4a;stroke-width:8;stroke-linecap:butt;stroke-linejoin:miter;stroke-miterlimit:10;stroke-opacity:1;stroke-dasharray:none" /></g><g
                   transform="matrix(0.6819984,0.7313537,0.7313537,-0.6819984,551.8797,-9.209246)"
                   id="g386"><path
                     d="m 28.76231,0.1122992 c 0,0 -50.22931,63.8371208 -18.65706,127.0202008"
                     inkscape:connector-curvature="0"
                     id="path388"
                     style="fill:none;stroke:#4a4a4a;stroke-width:8;stroke-linecap:butt;stroke-linejoin:miter;stroke-miterlimit:10;stroke-opacity:1;stroke-dasharray:none" /></g><g
                   transform="matrix(0.6819984,0.7313537,0.7313537,-0.6819984,584.7505,-2.15878)"
                   id="g390"><path
                     d="m 13.36932,0 c 0,0 -23.093294,44.12469 -8.57772,87.79729"
                     inkscape:connector-curvature="0"
                     id="path392"
                     style="fill:none;stroke:#4a4a4a;stroke-width:8;stroke-linecap:butt;stroke-linejoin:miter;stroke-miterlimit:10;stroke-opacity:1;stroke-dasharray:none" /></g><g
                   transform="matrix(0.6819984,0.7313537,0.7313537,-0.6819984,603.1945,11.48978)"
                   id="g394"><path
                     d="m 13.36932,0 c 0,0 -23.093294,44.12469 -8.57772,87.79729"
                     inkscape:connector-curvature="0"
                     id="path396"
                     style="fill:none;stroke:#4a4a4a;stroke-width:8;stroke-linecap:butt;stroke-linejoin:miter;stroke-miterlimit:10;stroke-opacity:1;stroke-dasharray:none" /></g><g
                   transform="matrix(0.6819984,0.7313537,0.7313537,-0.6819984,493.0046,-0.00799111)"
                   id="g398"><path
                     d="m 28.76231,0.1122992 c 0,0 -50.22931,63.8371208 -18.65706,127.0202008"
                     inkscape:connector-curvature="0"
                     id="path400"
                     style="fill:none;stroke:#4a4a4a;stroke-width:8;stroke-linecap:butt;stroke-linejoin:miter;stroke-miterlimit:10;stroke-opacity:1;stroke-dasharray:none" /></g></g></g><g
               id="g402"><g
                 clip-path="url(#clipPath218)"
                 id="g404"><g
                   clip-path="url(#clipPath222)"
                   id="g406"><path
                     d="m 224.4416,744.5806 203.7001,0 0,-453.8011 -203.7001,0 0,453.8011 z"
                     inkscape:connector-curvature="0"
                     id="path408"
                     style="fill:#4a4a4a;fill-opacity:1;fill-rule:evenodd;stroke:none" /></g></g></g><g
               id="g410"><g
                 clip-path="url(#clipPath226)"
                 id="g412"><g
                   transform="matrix(1,0,0,-1,184.5663,543.9566)"
                   id="g414"><path
                     d="M 0.5825041,77.52701 281.3495,0.5829099"
                     inkscape:connector-curvature="0"
                     id="path416"
                     style="fill:none;stroke:#ffffff;stroke-width:2;stroke-linecap:square;stroke-linejoin:miter;stroke-miterlimit:10;stroke-opacity:1;stroke-dasharray:none" /></g><g
                   transform="matrix(1,0,0,-1,218.3516,408.7216)"
                   id="g418"><path
                     d="m 125.4871,31.66466 c 0,0 -26.90242,-50.13396 -125.3513737,-24.399094"
                     inkscape:connector-curvature="0"
                     id="path420"
                     style="fill:none;stroke:#4a4a4a;stroke-width:7;stroke-linecap:butt;stroke-linejoin:miter;stroke-miterlimit:10;stroke-opacity:1;stroke-dasharray:none" /></g></g></g><g
               id="g422"><g
                 clip-path="url(#clipPath230)"
                 id="g424"><g
                   clip-path="url(#clipPath234)"
                   id="g426"><path
                     d="M 223.5155,870.8471 708.5658,385.7968 239.3821,-83.38689 -245.6682,401.6634 223.5155,870.8471 z"
                     inkscape:connector-curvature="0"
                     id="path428"
                     style="fill:#4a4a4a;fill-opacity:1;fill-rule:evenodd;stroke:none" /></g></g></g><g
               id="g430"><g
                 clip-path="url(#clipPath238)"
                 id="g432"><g
                   clip-path="url(#clipPath242)"
                   id="g434"><path
                     d="M 243.7347,915.785 686.4841,569.8713 208.9387,-41.35898 -233.8107,304.5548 243.7347,915.785 z"
                     inkscape:connector-curvature="0"
                     id="path436"
                     style="fill:#ff675e;fill-opacity:1;fill-rule:evenodd;stroke:none" /></g></g></g><g
               id="g438"><g
                 clip-path="url(#clipPath246)"
                 id="g440"><g
                   clip-path="url(#clipPath250)"
                   id="g442"><path
                     d="m 53.41827,579.327 50.69313,0 0,-518.48093 -50.69313,0 0,518.48093 z"
                     inkscape:connector-curvature="0"
                     id="path444"
                     style="fill:#4a4a4a;fill-opacity:1;fill-rule:evenodd;stroke:none" /></g></g></g></g></g></g></g></g></svg>